<?xml version="1.0" standalone="no"?>
<!DOCTYPE svg PUBLIC "-//W3C//DTD SVG 20010904//EN"
 "http://www.w3.org/TR/2001/REC-SVG-20010904/DTD/svg10.dtd">
<svg version="1.0" xmlns="http://www.w3.org/2000/svg"
 width="500.000000pt" height="500.000000pt" viewBox="0 0 500.000000 500.000000"
 preserveAspectRatio="xMidYMid meet">
<metadata>
Created by potrace 1.14, written by Peter Selinger 2001-2017
</metadata>
<g transform="translate(0.000000,500.000000) scale(0.100000,-0.100000)"
fill="#000000" stroke="none">
<path d="M2055 4934 c-11 -3 -58 -11 -105 -20 -156 -27 -336 -81 -429 -129
-130 -65 -375 -248 -395 -294 -4 -7 23 13 58 47 75 70 187 152 207 152 11 -1
10 -3 -2 -13 -21 -16 -49 -75 -49 -103 0 -34 33 -51 135 -68 166 -27 258 -35
540 -47 154 -6 287 -15 295 -21 10 -6 -28 -7 -108 -3 -165 8 -300 7 -527 -5
-339 -17 -447 -32 -568 -75 -67 -25 -167 -82 -167 -97 0 -4 -6 -5 -13 -3 -21
9 -160 -228 -207 -350 -26 -69 -72 -218 -110 -355 -49 -175 -103 -296 -158
-352 -25 -27 -42 -48 -37 -48 5 0 65 57 133 128 l124 127 -8 -55 c-4 -30 -7
-122 -6 -205 0 -127 4 -165 26 -250 22 -85 26 -122 26 -246 0 -130 -18 -353
-38 -472 l-8 -42 -55 76 c-45 59 -81 93 -173 160 -64 46 -176 128 -249 182
-72 55 -144 108 -160 119 l-27 19 0 -408 0 -408 143 -107 c144 -108 267 -192
334 -227 68 -36 66 -30 43 -112 -12 -41 -41 -148 -64 -239 -28 -111 -56 -191
-83 -245 -22 -44 -71 -150 -107 -235 -37 -85 -71 -164 -76 -175 -33 -71 -180
-500 -180 -525 0 -6 66 -10 183 -10 l183 0 -4 39 c-6 64 17 343 43 526 44 298
69 403 172 720 25 77 47 143 49 147 5 8 69 -25 354 -187 118 -67 260 -145 315
-174 55 -29 155 -83 223 -119 l123 -67 -6 -50 c-23 -198 -27 -562 -9 -763 l6
-72 739 0 739 0 0 215 c0 181 2 217 15 221 25 10 102 -23 191 -81 47 -31 116
-71 152 -88 37 -17 79 -46 96 -66 17 -20 67 -73 111 -119 l80 -82 326 2 326 3
-52 82 c-77 121 -232 326 -322 424 -43 47 -121 134 -173 193 -52 60 -112 127
-133 150 -21 22 -73 84 -115 136 -42 52 -126 145 -187 206 -94 94 -124 117
-202 157 -50 26 -135 58 -190 73 -138 36 -250 73 -307 101 -43 22 -48 23 -41
6 16 -36 17 -76 5 -113 -13 -40 -34 -50 -102 -50 -17 0 -57 -7 -90 -16 -33 -8
-68 -12 -77 -8 -19 9 -30 11 -98 13 -36 1 -51 5 -49 13 1 7 1 10 -1 6 -8 -13
-35 -9 -103 16 -57 21 -66 27 -71 54 -13 62 5 114 58 169 54 58 69 64 76 31 3
-14 4 -10 4 10 -1 17 -6 32 -12 32 -6 0 -33 -22 -60 -50 -27 -27 -58 -50 -69
-50 -11 0 -34 -5 -52 -12 -25 -9 -41 -8 -80 5 -98 31 -251 66 -341 77 -87 11
-103 16 -270 102 -239 122 -496 258 -507 269 -6 5 4 56 27 131 20 68 51 188
68 268 43 201 49 224 58 214 4 -5 45 -58 91 -119 81 -107 121 -156 87 -105
-10 14 -21 34 -26 45 -11 26 -30 109 -26 113 1 2 26 -43 55 -100 28 -57 65
-123 81 -148 16 -25 33 -54 37 -64 8 -19 9 -19 14 2 4 12 14 22 23 22 10 0 15
5 12 13 -3 7 -15 49 -27 92 -33 122 -67 227 -116 367 l-45 128 11 117 c14 149
26 216 57 323 26 87 70 196 77 189 2 -2 6 -41 9 -86 l5 -83 -26 -1 -27 -1 28
-10 c29 -10 29 -10 47 -128 10 -68 35 -161 48 -184 3 -5 18 26 33 70 27 78 68
179 81 200 4 6 54 14 110 18 57 3 132 13 168 20 35 8 68 12 71 10 4 -2 15 -28
25 -57 30 -92 123 -254 191 -330 38 -43 38 -42 18 53 -8 39 -17 110 -19 156
-4 108 11 345 23 357 6 6 24 -19 47 -64 75 -151 226 -306 397 -406 58 -35 112
-66 121 -69 11 -4 14 -13 11 -25 -5 -16 1 -18 51 -21 l56 -3 -1 -130 c-2 -154
6 -223 23 -200 17 22 67 29 91 12 16 -13 18 -18 7 -41 -13 -30 -51 -42 -81
-26 -19 9 -21 8 -21 -14 0 -14 4 -27 9 -31 5 -3 12 -18 16 -34 9 -41 43 -68
97 -75 78 -12 139 37 167 133 20 68 40 263 34 336 l-5 65 96 0 c98 0 128 12
79 31 -21 9 -415 21 -584 19 -16 0 -42 44 -32 54 4 3 34 7 67 8 l61 2 -73 5
-74 6 -19 58 c-16 46 -18 66 -10 95 6 20 13 67 17 105 4 37 11 67 16 67 4 0
40 -9 79 -20 39 -11 104 -22 145 -26 72 -7 74 -8 107 -50 94 -120 299 -323
266 -263 -7 13 -32 78 -55 144 -23 66 -47 132 -53 148 -6 15 -7 27 -2 27 4 0
14 -12 22 -27 7 -16 39 -68 70 -118 90 -144 98 -164 119 -307 22 -142 21 -198
-7 -363 -29 -172 -30 -165 6 -166 35 -2 38 -2 67 -12 27 -10 74 -76 74 -105 0
-34 20 -27 87 33 134 120 291 407 355 648 11 43 28 64 28 35 0 -7 7 -58 15
-113 9 -55 20 -134 25 -175 15 -112 48 -278 71 -356 11 -38 31 -112 45 -164
22 -85 151 -490 299 -940 58 -178 69 -218 114 -410 48 -206 88 -426 106 -585
9 -82 19 -165 21 -182 l5 -33 165 0 166 0 -5 43 c-6 56 -52 205 -125 407 -91
250 -144 375 -257 605 -219 447 -224 458 -245 579 -60 356 -72 564 -68 1238 1
306 -1 561 -6 565 -4 4 -7 -42 -6 -102 2 -156 -2 -504 -6 -480 -2 11 -10 130
-19 265 -16 272 -38 382 -97 491 -32 61 -110 147 -150 166 -66 30 -78 37 -78
45 0 4 19 8 43 8 55 0 134 -38 193 -92 26 -24 45 -36 42 -28 -2 8 -32 36 -66
62 -59 45 -82 55 -176 75 l-38 8 -25 94 c-45 177 -86 260 -215 439 -153 213
-441 395 -747 473 -68 18 -119 23 -241 24 -114 2 -167 7 -198 18 -24 9 -80 21
-125 27 -79 10 -291 12 -332 4z m640 -550 c123 -16 215 -40 215 -57 0 -14
-107 -1 -235 28 -60 14 -127 27 -148 30 -21 3 -35 10 -32 16 4 5 23 7 43 4 20
-3 91 -12 157 -21z m495 -100 c30 -9 103 -17 163 -19 101 -3 137 -12 137 -36
0 -5 26 -40 58 -78 51 -61 142 -201 142 -218 0 -3 -48 41 -107 98 -84 80 -125
112 -183 141 -97 47 -184 83 -237 97 -24 7 -43 16 -43 21 0 13 5 13 70 -6z
m-1368 -581 c-2 -65 1 -140 7 -168 20 -98 31 -168 26 -173 -10 -10 -142 -31
-238 -38 l-97 -7 10 29 c42 113 261 471 290 474 3 0 3 -53 2 -117z m923 -70
c50 -86 171 -262 188 -274 38 -26 -137 -8 -228 24 l-40 14 0 74 c1 97 15 249
23 249 4 0 30 -39 57 -87z m-572 -2251 c71 -23 115 -48 104 -59 -4 -4 -278 55
-284 61 -2 2 -1 11 3 20 8 22 66 15 177 -22z m557 -33 c44 -9 50 -14 50 -36 0
-24 -2 -25 -37 -17 -21 5 -102 9 -180 9 -77 0 -139 3 -137 6 2 3 32 13 66 22
106 28 165 32 238 16z m-351 -13 c-2 -2 -23 -15 -46 -30 l-43 -26 0 30 c0 29
1 30 47 30 25 0 44 -2 42 -4z m-209 -34 l85 -17 3 -47 3 -47 -43 -5 c-165 -20
-249 -29 -253 -24 -3 2 0 20 5 39 6 18 10 53 10 76 l0 43 53 0 c28 -1 90 -9
137 -18z m225 -44 c-3 -12 -10 -25 -17 -30 -7 -4 -32 -19 -55 -33 l-43 -26 0
28 c1 23 10 34 53 60 56 34 68 34 62 1z m303 -9 l64 -11 -6 -37 c-3 -20 -9
-55 -12 -78 -4 -24 -7 -43 -8 -43 -2 0 -71 23 -154 50 -83 28 -159 50 -168 50
-11 0 -14 5 -10 16 3 9 6 27 6 40 0 24 0 24 112 24 61 0 140 -5 176 -11z
m-324 -118 c-6 -40 -8 -41 -45 -41 -22 0 -40 5 -40 10 -1 6 -2 14 -3 20 -1 8
85 60 92 55 1 -1 0 -21 -4 -44z m-111 -1 c7 -26 -8 -33 -115 -59 -75 -18 -218
-29 -218 -17 0 3 4 16 9 29 9 22 20 27 103 41 192 33 214 33 221 6z m443 -91
c29 -11 30 -14 20 -45 -7 -21 -17 -34 -28 -34 -33 0 -138 39 -200 73 -94 54
-112 70 -104 95 7 21 10 20 144 -27 75 -27 151 -55 168 -62z m-336 -3 c1 -17
7 -44 15 -61 l14 -30 -6 35 c-6 31 -4 33 9 22 9 -7 21 -34 27 -60 40 -157 55
-210 67 -237 7 -16 16 -43 20 -60 4 -16 15 -49 25 -72 14 -32 15 -43 5 -43
-22 0 -62 105 -121 315 -23 83 -35 109 -28 65 3 -27 -6 -60 -40 -140 -25 -58
-48 -117 -52 -132 -13 -50 -31 -52 -48 -6 -26 70 -67 220 -67 246 0 13 20 62
45 110 l44 87 46 -3 c43 -4 45 -5 45 -36z m-140 -30 c0 -2 -29 -61 -65 -132
-36 -71 -75 -157 -86 -193 -12 -35 -28 -75 -35 -90 -8 -14 -14 -32 -14 -39 0
-9 -9 -7 -30 8 -16 12 -30 30 -30 41 0 32 34 110 80 184 24 39 58 95 77 125
43 71 69 100 88 100 8 0 15 -2 15 -4z m-132 -57 c-13 -17 -28 -38 -33 -47 -6
-10 -26 -42 -45 -72 -20 -30 -48 -81 -63 -112 -15 -32 -32 -58 -38 -58 -6 0
-7 -4 -4 -10 9 -14 -8 -12 -29 3 -18 13 -18 15 2 60 31 70 163 259 177 253 6
-2 18 0 26 5 27 17 30 9 7 -22z m457 -4 c15 -4 27 -26 43 -80 13 -41 41 -113
62 -161 22 -47 40 -88 40 -90 0 -4 -85 -54 -92 -54 -14 0 -138 354 -138 396 0
12 21 9 85 -11z m-651 -108 c-36 -56 -67 -112 -70 -124 -5 -19 -24 -34 -24
-19 0 36 129 256 146 249 7 -3 -12 -41 -52 -106z m785 21 c88 -190 90 -196 75
-209 -9 -8 -18 -9 -24 -3 -16 16 -90 206 -84 215 3 5 0 9 -5 9 -6 0 -11 11
-11 25 0 42 18 28 49 -37z"/>
<path d="M2302 1028 c-16 -16 -15 -33 2 -47 18 -15 40 11 31 39 -7 23 -16 25
-33 8z"/>
<path d="M2281 901 c-16 -28 14 -51 36 -28 13 13 14 19 3 31 -17 21 -27 20
-39 -3z"/>
<path d="M2267 792 c-11 -12 -13 -22 -6 -35 14 -24 38 -21 48 6 16 43 -11 63
-42 29z"/>
<path d="M1044 4408 c-54 -57 -120 -135 -83 -98 42 41 152 160 148 160 -3 0
-32 -28 -65 -62z"/>
<path d="M4240 3665 c0 -5 5 -17 10 -25 5 -8 10 -10 10 -5 0 6 -5 17 -10 25
-5 8 -10 11 -10 5z"/>
<path d="M4262 3610 c0 -8 4 -26 8 -40 6 -20 8 -21 8 -5 0 11 -3 29 -8 40 -5
12 -8 14 -8 5z"/>
<path d="M4283 3505 c0 -22 2 -30 4 -17 2 12 2 30 0 40 -3 9 -5 -1 -4 -23z"/>
<path d="M1778 3003 c17 -2 47 -2 65 0 17 2 3 4 -33 4 -36 0 -50 -2 -32 -4z"/>
<path d="M1750 2953 c-194 -6 -412 -23 -431 -34 -39 -21 -4 -31 96 -30 54 1
103 3 109 4 7 1 13 -43 17 -138 7 -152 24 -220 49 -191 16 20 64 21 80 1 31
-37 -34 -72 -72 -39 l-20 19 16 -40 c26 -62 68 -108 115 -125 37 -13 45 -13
69 0 75 43 97 134 90 370 l-6 170 34 0 c19 0 34 5 34 10 0 20 -57 27 -180 23z"/>
<path d="M3350 2237 c-13 -10 -12 -15 7 -34 13 -12 23 -18 23 -14 0 5 -7 14
-15 21 -12 10 -13 16 -4 26 14 17 9 17 -11 1z"/>
<path d="M3281 2134 c0 -11 3 -14 6 -6 3 7 2 16 -1 19 -3 4 -6 -2 -5 -13z"/>
<path d="M3460 2100 c-6 -11 -8 -20 -6 -20 3 0 10 9 16 20 6 11 8 20 6 20 -3
0 -10 -9 -16 -20z"/>
<path d="M3253 2089 c-11 -12 -36 -25 -54 -29 -32 -7 -32 -8 -7 -9 18 -1 40
10 60 29 18 16 31 30 28 30 -3 0 -15 -9 -27 -21z"/>
<path d="M3383 2006 c-70 -72 -130 -101 -210 -100 -40 1 -71 7 -88 18 -24 16
-30 16 -58 2 -248 -117 -521 -186 -792 -199 -60 -3 -60 -3 12 -5 95 -3 301 24
388 49 119 35 278 91 325 114 67 33 93 37 140 20 57 -20 99 -19 162 5 53 20
149 94 168 131 15 28 10 24 -47 -35z"/>
<path d="M2260 2014 l-25 -15 25 8 c31 9 79 9 105 -1 12 -4 10 -1 -5 8 -32 19
-68 19 -100 0z"/>
<path d="M1457 1973 c26 -27 29 -33 14 -33 -10 0 -38 14 -62 32 -32 22 -39 25
-24 9 27 -31 68 -51 104 -51 16 0 33 -4 36 -10 3 -5 11 -10 18 -10 6 0 -6 12
-28 26 -22 15 -51 36 -65 48 -14 12 -11 6 7 -11z"/>
<path d="M1565 1903 c12 -12 143 -66 240 -100 109 -36 275 -74 323 -72 15 0
-17 9 -71 19 -134 25 -256 61 -374 111 -127 53 -130 54 -118 42z"/>
<path d="M2579 1693 c-1 -5 -3 -21 -5 -36 -1 -16 -15 -45 -30 -65 l-26 -37 36
37 c26 26 36 46 36 67 0 33 16 40 40 19 12 -11 12 -10 1 5 -13 17 -50 24 -52
10z"/>
<path d="M2266 1560 c5 -8 27 -37 49 -64 l38 -48 -24 -19 c-13 -10 -19 -19
-13 -19 5 0 16 6 23 13 10 10 19 5 43 -23 17 -19 27 -28 23 -20 -4 8 -17 25
-27 36 -10 12 -18 25 -16 31 2 5 -21 36 -51 68 -30 33 -50 53 -45 45z"/>
<path d="M2442 1508 c-34 -22 -61 -43 -58 -45 4 -5 126 76 126 83 0 7 -3 5
-68 -38z"/>
</g>
</svg>
